#!OML:ASF E:\VariousWalksJay\Project 1\Capture day 1\Session 1\Actor2.ASF
:FULLY-SPECIFIED
:DEGREES
938
root 0.0571172 15.7493 35.0616 12.4771 -19.5825 -4.55262
lowerback 18.4452 0.366061 5.50774
upperback 12.5911 1.01978 -0.127813
thorax 3.40473 0.777683 -3.39408
lowerneck -3.98143 -1.12584 1.25324
upperneck -10.1166 -0.969287 8.44428
head -2.5126 -0.77557 2.53662
rclavicle 8.59744e-015 -1.24737e-014
rhumerus -134.916 162.122 -235.255
rradius 51.8238
rwrist -4.70087
rhand -8.53531 9.74955
rfingers 7.12502
rthumb 17.3937 -19.4922
lclavicle 8.59744e-015 -1.24737e-014
lhumerus -129.241 -153.099 233.219
lradius 47.8541
lwrist 19.7648
lhand -8.75742 -16.0945
lfingers 7.12502
lthumb 17.1799 13.166
rfemur -46.3199 5.03266 20.7822
rtibia 56.7011
rfoot -20.0543 -6.58522
rtoes -7.55254
lfemur -44.9292 2.02211 -16.9617
ltibia 55.3372
lfoot -20.579 2.25898
ltoes -6.81176
939
root 0.0217633 15.7992 35.1318 11.8539 -19.4865 -4.66013
lowerback 17.7041 0.350894 5.50277
upperback 12.3228 0.977098 -0.123938
thorax 3.47934 0.757096 -3.37107
lowerneck -3.85074 -1.1185 1.1271
upperneck -10.0657 -0.949135 8.52185
head -2.51963 -0.762852 2.58609
rclavicle -1.03368e-014 1.61016e-014
rhumerus -134.33 163.049 -235.065
rradius 52.6
rwrist -5.82003
rhand -8.9641 9.66282
rfingers 7.12502
rthumb 16.981 -19.6149
lclavicle -1.03368e-014 1.61016e-014
lhumerus -128.781 -153.807 232.78
lradius 49.0679
lwrist 21.4015
lhand -8.96052 -15.972
lfingers 7.12502
lthumb 16.9844 13.3054
rfemur -44.8313 4.74958 21.1028
rtibia 55.999
rfoot -20.2583 -6.42133
rtoes -7.57936
lfemur -43.4716 2.27287 -16.8453
ltibia 54.6246
lfoot -20.6727 1.98723
ltoes -6.86469
940
root -0.0145772 15.8494 35.2041 11.2558 -19.3626 -4.78213
lowerback 16.9646 0.314361 5.51684
upperback 12.0283 0.909896 -0.113261
thorax 3.52622 0.723954 -3.34934
lowerneck -3.70181 -1.11907 0.965984
upperneck -9.98645 -0.93966 8.61721
head -2.52 -0.754107 2.6477
rclavicle 2.68359e-015 8.34896e-015
rhumerus -133.725 163.947 -234.783
rradius 53.2954
rwrist -6.69563
rhand -9.33076 9.57198
rfingers 7.12502
rthumb 16.628 -19.7357
lclavicle 2.68359e-015 8.34896e-015
lhumerus -128.338 -154.572 232.374
lradius 50.2185
lwrist 23.0708
lhand -9.10454 -15.7906
lfingers 7.12502
lthumb 16.8458 13.4987
rfemur -43.3482 4.46148 21.4278
rtibia 55.2795
rfoot -20.453 -6.28904
rtoes -7.61647
lfemur -42.0244 2.50565 -16.7
ltibia 53.8914
lfoot -20.7551 1.70298
ltoes -6.89965
941
root -0.052327 15.8993 35.2783 10.6926 -19.2272 -4.90309
lowerback 16.2153 0.271354 5.52781
upperback 11.707 0.833715 -0.104525
thorax 3.55152 0.685179 -3.328
lowerneck -3.53523 -1.12997 0.775784
upperneck -9.88007 -0.943356 8.74518
head -2.51395 -0.751284 2.72562
rclavicle 7.39479e-014 -2.04748e-014
rhumerus -133.117 164.832 -234.412
rradius 53.915
rwrist -7.38959
rhand -9.63181 9.46744
rfingers 7.12502
rthumb 16.3382 -19.8644
lclavicle 7.39479e-014 -2.04748e-014
lhumerus -127.885 -155.375 231.972
lradius 51.2924
lwrist 24.7573
lhand -9.20895 -15.5633
lfingers 7.12502
lthumb 16.7453 13.7345
rfemur -41.8959 4.19606 21.7367
rtibia 54.5454
rfoot -20.6303 -6.19848
rtoes -7.62826
lfemur -40.6049 2.732 -16.5434
ltibia 53.1398
lfoot -20.8253 1.40789
ltoes -6.90066
942
root -0.091396 15.949 35.3547 10.1789 -19.0869 -5.01463
lowerback 15.4341 0.224344 5.52461
upperback 11.3534 0.749506 -0.0986232
thorax 3.56081 0.640713 -3.30179
lowerneck -3.35338 -1.15138 0.569569
upperneck -9.73091 -0.963495 8.88667
head -2.49558 -0.755462 2.81068
rclavicle -2.9122e-014 -2.24627e-014
rhumerus -132.511 165.682 -233.935
rradius 54.4661
rwrist -8.01286
rhand -9.88607 9.33987
rfingers 7.12502
rthumb 16.0934 -20.0119
lclavicle -2.9122e-014 -2.24627e-014
lhumerus -127.431 -156.211 231.58
lradius 52.2788
lwrist 26.4369
lhand -9.2895 -15.3
lfingers 7.12502
lthumb 16.6678 14.0044
rfemur -40.4929 3.95923 22.0189
rtibia 53.7988
rfoot -20.7859 -6.14804
rtoes -7.61646
lfemur -39.2313 2.94887 -16.387
ltibia 52.3709
lfoot -20.8843 1.11161
ltoes -6.86465
943
root -0.13156 15.9983 35.4333 9.71205 -18.9367 -5.1297
lowerback 14.6347 0.188235 5.54133
upperback 10.9842 0.680484 -0.103433
thorax 3.56966 0.605121 -3.30101
lowerneck -3.22586 -1.1989 0.398222
upperneck -9.52898 -1.02607 9.02707
head -2.4477 -0.779292 2.88754
rclavicle -3.4191e-014 -4.96962e-015
rhumerus -131.923 166.567 -233.356
rradius 54.9611
rwrist -8.67047
rhand -10.0882 9.16099
rfingers 7.12502
rthumb 15.8987 -20.2064
lclavicle -3.4191e-014 -4.96962e-015
lhumerus -126.893 -157.041 231.145
lradius 53.176
lwrist 28.1067
lhand -9.38735 -15.0133
lfingers 7.12502
lthumb 16.5735 14.299
rfemur -39.1331 3.75312 22.291
rtibia 53.0415
rfoot -20.9198 -6.13578
rtoes -7.56707
lfemur -37.8979 3.15172 -16.2161
ltibia 51.5866
lfoot -20.9325 0.814665
ltoes -6.79616
